<svg width="17" height="20" viewBox="0 0 17 20" fill="none" xmlns="http://www.w3.org/2000/svg">
<path d="M6.24479 17.5632C6.05075 17.1621 4.9118 17.0201 4.21156 16.9784C4.01752 16.97 3.91628 17.1872 4.05127 17.3292C4.32124 17.6133 4.66714 17.9976 4.75994 18.2148C4.88649 18.5239 4.90337 19.2507 4.89493 19.7937C4.89493 19.9942 5.15647 20.0778 5.27458 19.9107C5.75547 19.2173 6.48102 18.0561 6.24479 17.5632ZM16.9863 8.41023C16.9863 10.7503 16.0768 12.929 14.6316 14.559C12.827 16.5949 10.534 18.3585 8.32104 18.9658C7.90174 19.0811 7.60224 18.5673 7.91102 18.2649C8.30839 17.8756 8.78421 17.3752 9.26932 16.7854C10.6909 15.0577 12.1943 12.5648 12.0492 9.86053C12.8405 9.848 13.3653 10.2164 13.6749 10.5356C13.7719 10.6358 13.9432 10.5706 13.9516 10.432C13.9964 9.65668 13.9415 7.94156 12.6727 7.28491C12.5377 7.21808 12.4111 7.18466 12.293 7.17631C12.2424 6.12367 12.0146 5.22976 11.6687 4.47788C11.6442 4.48791 11.6172 4.49292 11.5902 4.49292C11.4409 4.49292 11.2621 4.34505 11.1625 4.11865C11.0613 3.90144 11.0613 3.67587 11.1541 3.55891C10.1754 2.14704 8.78337 1.52047 7.87222 1.6625C7.13823 1.82958 6.42112 2.63159 5.99085 3.96827C6.13427 4.03511 6.18489 4.27738 6.1174 4.52801C6.0499 4.77028 5.89804 4.93737 5.74619 4.94572C5.65338 5.44697 5.60276 6.00671 5.59433 6.60822C4.04536 7.07271 3.3544 9.51048 3.13589 10.4921C3.10468 10.6333 3.26329 10.7402 3.38393 10.6592C3.97787 10.2599 5.10331 9.67924 6.03978 10.0819C6.07184 12.5448 7.65792 14.6809 6.73074 15.9758C6.7299 15.9758 6.7299 15.9758 6.72905 15.9758C6.72821 15.9758 6.72821 15.9758 6.72736 15.9758C2.63391 15.3735 0 12.6316 0 8.41023C0 4.34171 2.91654 0.949043 6.79233 0.169591C6.8421 0.159566 6.89188 0.149541 6.94166 0.140351C6.95937 0.13701 6.97709 0.133668 6.99481 0.130326C6.99987 0.129491 7.00493 0.128656 7.01084 0.12782C7.07327 0.11696 7.13654 0.106934 7.19982 0.0969094C7.62165 0.033417 8.0536 0 8.49315 0C8.63657 0 8.78 0.0033417 8.92173 0.0108605C9.06094 0.0175439 9.1993 0.0284045 9.33597 0.0417713C9.40262 0.0484547 9.46927 0.0559735 9.53507 0.0634923C9.58907 0.0701757 9.64306 0.0776946 9.69706 0.0852134C9.75105 0.0935677 9.8042 0.101922 9.85735 0.110276C9.93413 0.122808 10.0101 0.136174 10.086 0.150377C10.113 0.155389 10.1408 0.161237 10.1687 0.16625C10.1771 0.167921 10.1864 0.169591 10.1948 0.172098C10.237 0.179616 10.2792 0.188806 10.3205 0.197996C10.3779 0.210527 10.4353 0.223059 10.4926 0.237261C10.507 0.240603 10.5222 0.24478 10.5365 0.248121C10.5458 0.250628 10.5551 0.253134 10.5643 0.25564C10.5922 0.262324 10.62 0.269007 10.6479 0.276526C10.6757 0.284045 10.7035 0.291564 10.7314 0.299082C10.7398 0.301589 10.7483 0.303259 10.7559 0.305766C10.8023 0.318297 10.8478 0.331664 10.8934 0.345031C10.9676 0.366752 11.041 0.389308 11.1144 0.4127C11.1153 0.4127 11.1169 0.413536 11.1178 0.413536C11.1186 0.413536 11.1203 0.414371 11.1212 0.414371C14.5253 1.51045 16.9863 4.67421 16.9863 8.41023Z" fill="#F0F6FC"/>
</svg>
